<?xml version="1.0" encoding="UTF-8"?>
<!DOCTYPE svg PUBLIC "-//W3C//DTD SVG 1.1//EN" "http://www.w3.org/Graphics/SVG/1.1/DTD/svg11.dtd">
<!-- Creator: CorelDRAW 2019 (64-Bit 评估版) -->
<svg xmlns="http://www.w3.org/2000/svg" xml:space="preserve" width="297mm" height="210mm" version="1.1" style="shape-rendering:geometricPrecision; text-rendering:geometricPrecision; image-rendering:optimizeQuality; fill-rule:evenodd; clip-rule:evenodd"
viewBox="0 0 29700 21000"
 xmlns:xlink="http://www.w3.org/1999/xlink"
 xmlns:xodm="http://www.corel.com/coreldraw/odm/2003">
 <defs>
  <style type="text/css">
   <![CDATA[
    .fil1 {fill:#FEFEFE}
    .fil0 {fill:#E62129}
    .fil2 {fill:#FEFEFE;fill-rule:nonzero}
   ]]>
  </style>
 </defs>
 <g id="图层_x0020_1">
  <metadata id="CorelCorpID_0Corel-Layer"/>
  <rect class="fil0" x="2569.35" y="6705.3" width="21788.24" height="7756.2"/>
  <g id="_2176808645248">
   <path class="fil1" d="M9419.08 9836.92c0,0 -104.63,-363.45 -118.4,-385.47l123.9 -49.57 41.1 123.91 -41.3 13.76 -24.58 -74.34 -43.84 22.03 35.58 115.64 137.67 -46.81c0,0 -33.04,-140.42 -79.84,-223.02l-220.27 88.11c0,0 151.43,457.06 148.68,479.09l226.2 -58.46c0,0 -38.97,-193.58 -55.49,-212.86l-129.41 37.28 34.09 118.39 45.76 -11.85 -19.28 -79.01 41.94 -12.7c0,0 26.9,117.33 26.9,131.1l-96.37 24.78 -33.04 0z"/>
   <path class="fil1" d="M9227.8 9294.3c0,0 -180.4,-332.41 -198.58,-350.96l110.33 -75.06 66.8 112.15 -37.37 22.33 -40 -67.31 -38.08 30.95 59.64 105.27 124.37 -75.33c0,0 -62.49,-130.03 -125.97,-200.62l-196.15 133.45c0,0 246.25,413.76 248.3,435.86l208.33 -105.77c0,0 -79.73,-180.65 -100.01,-195.92l-118.35 64.25 58.77 108.29 42.13 -21.43 -35.82 -73.01 38.22 -21.43c0,0 51.52,108.8 54.48,122.24l-88.78 44.94 -32.26 7.11z"/>
   <path class="fil1" d="M8938.16 8789.54c0,0 -243.82,-289.12 -265.38,-303.61l92.9 -95.8 88.07 96.35 -32.09 29.42 -52.77 -57.85 -31.04 38 79.68 91.06 106.58 -98.91c0,0 -87.46,-114.72 -163.9,-171.03l-165.14 170.32c0,0 324.75,355.49 331.22,376.72l182.67 -145.67c0,0 -114.57,-160.83 -137.52,-171.68l-102.94 86.83 79.44 94.18 36.93 -29.5 -49.83 -64.26 33.1 -28.71c0,0 72.44,96.15 78.05,108.72l-77.87 61.94 -30.16 13.48z"/>
   <path class="fil1" d="M8542.32 8361.33c0,0 -288.46,-244.6 -312.13,-255.31l75.69 -109.9 102.86 80.38 -26.76 34.34 -61.64 -48.27 -24.3 42.63 93.69 76.55 88.68 -115.24c0,0 -105.3,-98.59 -190.03,-141.43l-134.56 195.39c0,0 379.29,296.6 389.2,316.46l155.93 -173.99c0,0 -139.7,-139.56 -164.13,-146.45l-87.08 102.73 93.98 79.67 31.52 -35.22 -59.82 -55.09 27.88 -33.81c0,0 87.39,82.78 95.02,94.24l-66.5 74.02 -27.5 18.3z"/>
   <path class="fil1" d="M8086.43 8008.93c0,0 -330.63,-183.64 -355.93,-189.53l52.81 -122.56 116.55 58.78 -19.54 38.9 -69.88 -35.32 -15.51 46.55 106.82 56.81 64.5 -130.32c0,0 -122.51,-76.17 -213.97,-101.65l-93.87 217.88c0,0 429.86,216.93 443.46,234.47l119 -201.06c0,0 -164.24,-109.63 -189.54,-111.63l-65.38 117.74 107.71 59.82 24.05 -40.69 -69.41 -42.37 20.75 -38.6c0,0 101.86,64.14 111.57,73.89l-50.78 85.57 -23.41 23.32z"/>
   <path class="fil1" d="M7555.58 7752.44c0,0 -362.87,-106.61 -388.85,-106.8l24.62 -131.16 126.62 31.77 -10.53 42.24 -75.93 -19.13 -4.92 48.82 116.69 31.99 34.32 -141.3c0,0 -136.24,-47.42 -231.06,-52.22l-43.76 233.17c0,0 466.99,117.3 484.1,131.44l71.97 -222.27c0,0 -184.29,-70.92 -209.41,-67.32l-37.94 129.22 118.21 34.72 14.53 -44.98 -77.02 -26.1 11.77 -42.21c0,0 113.46,40.22 125.08,47.61l-30.77 94.62 -17.72 27.89z"/>
   <path class="fil1" d="M6995.68 7603.01c0,0 -376.85,-31.95 -402.34,-26.95l-2.08 -133.43 130.41 5.82 -1.88 43.5 -78.22 -3.58 4.93 48.82 120.73 8.03 5.4 -145.31c0,0 -142.96,-19.25 -236.83,-5l3.7 237.21c0,0 481.01,21.64 500.6,32.07l26.12 -232.17c0,0 -194.75,-32.67 -218.65,-24.11l-11.35 134.19 122.76 10.4 5.25 -46.98 -80.68 -10.19 3.1 -43.7c0,0 119.21,16.74 132.07,21.65l-11.24 98.87 -11.8 30.86z"/>
   <path class="fil1" d="M6411.32 7569.97c0,0 -377.43,24.22 -401.9,32.94l-21.82 -131.65 129.83 -13.55 4.59 43.29 -77.88 8.05 12.1 47.55 120.59 -9.95 -16.19 -144.5c0,0 -144.24,2.14 -234.96,30.14l38.8 234.04c0,0 478.91,-49.85 499.84,-42.44l-8.57 -233.48c0,0 -197.44,-3.46 -219.81,8.54l8.65 134.4 122.95 -7.9 -1.77 -47.24 -81.29 1.88 -3.41 -43.69c0,0 120.36,-1.1 133.81,1.86l3.53 99.44 -7.09 32.27z"/>
   <path class="fil1" d="M5833.55 7641.75c0,0 -364.94,99.3 -387.16,112.75l-47.74 -124.62 124.49 -39.27 13.16 41.49 -74.7 23.49 21.39 44.16 116.15 -33.89 -44.79 -138.34c0,0 -140.89,30.98 -224.17,76.58l84.88 221.53c0,0 459.22,-144.73 481.21,-141.65l-55.14 -227.04c0,0 -194.13,36.14 -213.65,52.38l35.38 129.94 118.88 -32.36 -11.18 -45.92 -79.28 18.11 -12.09 -42.12c0,0 117.71,-25.17 131.48,-24.97l23.37 96.72 -0.49 33.03z"/>
   <path class="fil1" d="M5289.28 7825c0,0 -335.35,174.88 -354.19,192.75l-73.24 -111.56 113.25 -64.93 21.71 37.73 -67.96 38.88 30.31 38.59 106.25 -57.89 -73.28 -125.6c0,0 -131.03,60.33 -202.67,122.64l130.19 198.32c0,0 417.78,-239.37 439.91,-241.06l-102.31 -210.04c0,0 -181.95,76.72 -197.55,96.75l62.29 119.4 109.24 -56.98 -20.73 -42.48 -73.59 34.62 -20.79 -38.57c0,0 109.63,-49.72 123.12,-52.46l43.46 89.51 6.58 32.38z"/>
   <path class="fil1" d="M4774.48 8114.56c0,0 -293.06,239.07 -307.91,260.38l-94.27 -94.45 97.78 -86.48 28.89 32.56 -58.7 51.82 37.49 31.66 92.35 -78.18 -97.16 -108.19c0,0 -116.13,85.58 -173.68,161.08l167.59 167.91c0,0 360.75,-318.9 382.09,-325.02l-142.67 -185.02c0,0 -162.68,111.92 -173.91,134.69l85.14 104.34 95.47 -77.88 -28.89 -37.41 -65.07 48.77 -28.16 -33.57c0,0 97.31,-70.85 109.97,-76.26l60.67 78.87 12.98 30.38z"/>
   <path class="fil1" d="M4336.92 8497.79c0,0 -251.27,282.67 -262.53,306.08l-108.11 -78.24 82.76 -100.95 33.71 27.56 -49.7 60.49 42.05 25.29 78.72 -91.88 -113.13 -91.34c0,0 -101.03,102.97 -145.83,186.68l192.19 139.08c0,0 305.38,-372.26 325.47,-381.71l-170.3 -159.95c0,0 -142.79,136.4 -150.25,160.67l100.66 89.45 81.85 -92.09 -34.47 -32.33 -56.48 58.51 -33.15 -28.66c0,0 84.8,-85.44 96.43,-92.79l72.45 68.2 17.66 27.93z"/>
   <path class="fil1" d="M3976.26 8947.09c0,0 -188.98,327.6 -195.28,352.8l-121.68 -54.78 60.66 -115.59 38.58 20.17 -36.45 69.3 46.29 16.27 58.54 -105.89 -129.26 -66.61c0,0 -78.14,121.26 -105.11,212.3l216.33 97.39c0,0 223.87,-426.29 241.64,-439.6l-199.11 -122.24c0,0 -112.28,162.43 -114.69,187.7l116.67 67.28 61.55 -106.73 -40.3 -24.7 -43.48 68.71 -38.26 -21.37c0,0 65.78,-100.81 75.69,-110.36l84.74 52.16 22.93 23.79z"/>
   <path class="fil1" d="M3716.86 9474.71c0,0 -122.33,357.88 -123.65,383.82l-129.96 -30.31 37.26 -125.11 41.74 12.36 -22.42 75.02 48.56 7.05 37.04 -115.19 -139.67 -40.45c0,0 -53.32,134.04 -62.24,228.56l231.04 53.89c0,0 137.55,-461.43 152.42,-477.91l-218.93 -81.6c0,0 -78.88,181.03 -76.37,206.29l127.43 43.54 39.84 -116.59 -44.3 -16.48 -29.43 75.81 -41.66 -13.6c0,0 45.13,-111.59 53.02,-122.88l93.19 34.86 27.09 18.92z"/>
   <path class="fil1" d="M3201.03 9884.64c0,0 150.52,40.39 209.26,130.33 0,0 84.44,-130.33 134,-40.38l33.04 69.75c0,0 163.36,-82.6 238.62,-27.53 0,0 -119.31,9.17 -152.35,133.99 0,0 -42.22,194.58 -183.56,266.16l-3.67 64.25c0,0 44.05,44.05 51.4,77.09 0,0 100.95,-84.43 231.28,-73.42 0,0 -141.34,71.59 -143.18,262.49 0,0 -16.52,167.04 -128.49,200.08l0 75.26c0,0 58.74,12.85 73.43,55.06 0,0 78.93,-100.95 222.1,-110.13 0,0 -117.48,73.42 -99.12,308.38 0,0 -22.03,128.49 -80.77,187.23l9.18 58.74c0,0 66.08,23.86 80.77,56.9 0,0 119.31,-152.35 201.91,-141.34 0,0 -110.13,102.79 -44.05,251.47 0,0 38.55,146.85 -42.22,275.34l27.53 44.06c0,0 64.25,11.01 86.28,64.24 0,0 9.17,-145.01 165.2,-190.9 0,0 -99.12,137.67 25.7,310.21 0,0 29.37,95.46 -20.19,211.1l38.54 55.06c0,0 67.92,3.68 82.6,31.21 0,0 29.37,-192.74 141.34,-212.93 0,0 -77.09,165.2 23.87,229.45 0,0 124.82,137.67 73.42,301.04l42.22 42.21c0,0 66.08,-18.35 91.78,11.02 0,0 -11.01,-152.36 95.45,-240.46 0,0 -45.89,176.21 102.79,264.32 0,0 102.79,110.14 82.6,244.13l44.06 38.55c0,0 12.85,23.86 -29.37,18.36l-47.73 -22.03c0,0 -150.52,60.57 -245.97,3.67 0,0 -126.65,-100.96 -313.88,-84.44 0,0 45.89,-80.76 198.24,-104.62 0,0 -14.68,-51.4 -5.5,-97.29l-40.39 -44.05c0,0 -216.6,18.35 -295.53,-58.74 0,0 -73.42,-126.66 -255.14,-113.81 0,0 22.02,-64.25 223.94,-78.93 0,0 -20.19,-51.4 -11.02,-99.12l-44.05 -60.58c0,0 -143.17,36.72 -249.64,-93.61 0,0 -95.45,-141.34 -247.8,-170.71 0,0 113.8,-45.89 238.62,-25.7 0,0 -11.01,-66.08 0,-100.96l-25.69 -47.72c0,0 -156.03,5.51 -245.97,-165.2 0,0 -78.93,-163.37 -212.93,-196.41 0,0 128.49,-38.55 253.31,14.68 0,0 -3.67,-55.06 16.52,-100.95l-11.01 -62.41c0,0 -178.06,-49.56 -216.6,-205.59 0,0 -53.23,-146.85 -170.71,-218.43 0,0 117.48,-7.35 245.97,45.89 0,0 1.83,-47.73 29.37,-67.92l-3.68 -80.77c0,0 -137.66,-25.69 -172.54,-201.91 0,0 -7.34,-159.7 -124.82,-280.85 0,0 126.65,5.51 216.6,93.62 0,0 31.2,-66.08 49.56,-73.42l1.83 -78.93c0,0 -108.29,-45.89 -122.98,-198.25 0,0 18.36,-238.62 -86.27,-308.38l-12 -17.94 6.49 1.42z"/>
   <path class="fil1" d="M9816.19 9884.64c0,0 -150.52,40.39 -209.26,130.33 0,0 -84.43,-130.33 -133.99,-40.38l-33.04 69.75c0,0 -163.37,-82.6 -238.63,-27.53 0,0 119.31,9.17 152.35,133.99 0,0 42.22,194.58 183.56,266.16l3.67 64.25c0,0 -44.05,44.05 -51.39,77.09 0,0 -100.96,-84.43 -231.29,-73.42 0,0 141.34,71.59 143.18,262.49 0,0 16.52,167.04 128.49,200.08l0 75.26c0,0 -58.74,12.85 -73.42,55.06 0,0 -78.93,-100.95 -222.11,-110.13 0,0 117.48,73.42 99.12,308.38 0,0 22.03,128.49 80.77,187.23l-9.18 58.74c0,0 -66.08,23.86 -80.76,56.9 0,0 -119.32,-152.35 -201.92,-141.34 0,0 110.14,102.79 44.06,251.47 0,0 -38.55,146.85 42.21,275.34l-27.53 44.06c0,0 -64.25,11.01 -86.27,64.24 0,0 -9.18,-145.01 -165.2,-190.9 0,0 99.12,137.67 -25.7,310.21 0,0 -29.37,95.46 20.19,211.1l-38.55 55.06c0,0 -67.92,3.68 -82.6,31.21 0,0 -29.37,-192.74 -141.34,-212.93 0,0 77.09,165.2 -23.86,229.45 0,0 -124.82,137.67 -73.43,301.04l-42.21 42.21c0,0 -66.08,-18.35 -91.78,11.02 0,0 11.01,-152.36 -95.45,-240.46 0,0 45.89,176.21 -102.8,264.32 0,0 -102.79,110.14 -82.6,244.13l-44.05 38.55c0,0 -12.85,23.86 29.37,18.36l47.72 -22.03c0,0 150.52,60.57 245.97,3.67 0,0 126.66,-100.96 313.89,-84.44 0,0 -45.89,-80.76 -198.25,-104.62 0,0 14.69,-51.4 5.51,-97.29l40.38 -44.05c0,0 216.6,18.35 295.53,-58.74 0,0 73.42,-126.66 255.15,-113.81 0,0 -22.03,-64.25 -223.94,-78.93 0,0 20.19,-51.4 11.01,-99.12l44.05 -60.58c0,0 143.18,36.72 249.64,-93.61 0,0 95.45,-141.34 247.81,-170.71 0,0 -113.81,-45.89 -238.63,-25.7 0,0 11.01,-66.08 0,-100.96l25.7 -47.72c0,0 156.02,5.51 245.97,-165.2 0,0 78.93,-163.37 212.92,-196.41 0,0 -128.49,-38.55 -253.31,14.68 0,0 3.67,-55.06 -16.52,-100.95l11.02 -62.41c0,0 178.05,-49.56 216.6,-205.59 0,0 53.23,-146.85 170.7,-218.43 0,0 -117.47,-7.35 -245.96,45.89 0,0 -1.84,-47.73 -29.37,-67.92l3.67 -80.77c0,0 137.67,-25.69 172.54,-201.91 0,0 7.35,-159.7 124.82,-280.85 0,0 -126.65,5.51 -216.6,93.62 0,0 -31.2,-66.08 -49.56,-73.42l-1.83 -78.93c0,0 108.3,-45.89 122.98,-198.25 0,0 -18.35,-238.62 86.27,-308.38l12 -17.94 -6.49 1.42z"/>
   <path class="fil1" d="M4202.32 11694.72l-50.88 -106.91 16.65 -7.92c1.7,2.76 4.19,6.74 7.45,11.95 3.2,5.24 5.95,8.57 8.2,10 3.59,2.78 7.73,4.07 12.39,3.91 4.62,-0.16 10.01,-1.66 16.09,-4.55l118.46 -56.38 -57.62 -121.03 -115.89 55.15c-5.43,2.59 -9.76,5.49 -12.87,8.64 -3.09,3.22 -5.08,7.51 -5.9,13 -0.47,2.72 -0.1,7.02 0.97,12.98 1.15,5.91 2.32,10.44 3.61,13.56l-16.66 7.92 -50.89 -106.9 16.66 -7.94c1.71,2.76 4.18,6.75 7.45,11.95 3.19,5.24 5.95,8.57 8.2,10 3.55,2.71 7.71,4.02 12.37,3.91 4.65,-0.15 10.03,-1.65 16.1,-4.55l240.28 -114.36c4.96,-2.36 9.15,-5.33 12.58,-8.87 3.38,-3.59 5.3,-7.84 5.87,-12.82 0.45,-4.24 0.4,-9.08 -0.3,-14.46 -0.61,-5.39 -1.64,-9.84 -2.94,-13.4l16.66 -7.93 50.88 106.91 -16.65 7.93c-1.79,-3.34 -4.48,-7.14 -8.02,-11.46 -3.61,-4.29 -6.46,-7.4 -8.73,-9.29 -3.9,-3.24 -8.32,-4.47 -13.32,-3.84 -5.06,0.73 -10.2,2.34 -15.32,4.77l-103.23 49.15 57.61 121.02 100.92 -48.02c4.95,-2.36 9.13,-5.35 12.56,-8.88 3.41,-3.58 5.31,-7.83 5.88,-12.83 0.45,-4.23 0.39,-9.07 -0.28,-14.44 -0.62,-5.41 -1.66,-9.85 -2.96,-13.41l16.66 -7.93 50.89 106.91 -16.66 7.92c-1.79,-3.32 -4.47,-7.13 -8.01,-11.46 -3.61,-4.27 -6.48,-7.4 -8.74,-9.28 -3.9,-3.23 -8.32,-4.47 -13.29,-3.78 -5.09,0.68 -10.22,2.28 -15.34,4.72l-240.02 114.25c-5.45,2.59 -9.77,5.48 -12.86,8.7 -3.11,3.14 -5.11,7.43 -5.93,12.92 -0.47,2.74 -0.09,7.04 0.98,12.99 1.13,5.91 2.31,10.45 3.6,13.55l-16.66 7.93z"/>
   <path class="fil1" d="M4725.2 11876c-2.2,-2.98 -6.09,-7.06 -11.7,-11.98 -5.56,-4.96 -11.27,-8.23 -16.98,-9.95 -5.84,-1.56 -14.37,0.35 -25.77,5.8 -11.36,5.51 -24.48,13.19 -39.53,23.23l-133.36 88.9c-17.05,11.37 -33.59,18.52 -49.8,21.4 -16.2,2.88 -31.24,2.53 -45.31,-0.96 -13.61,-3.63 -25.42,-9.19 -35.31,-16.69 -9.91,-7.49 -17.81,-15.67 -23.78,-24.63 -9.51,-14.27 -15.52,-28.57 -18.12,-43 -2.62,-14.32 -2.36,-28.01 0.85,-41.12 3.21,-12.93 8.85,-24.77 16.92,-35.68 8.12,-10.86 17.86,-20.08 29.45,-27.79l181.4 -120.94c5.02,-3.35 8.77,-6.83 11.33,-10.36 2.55,-3.51 3.91,-8.2 4.28,-14.05 0.13,-4.13 -0.66,-8.8 -2.36,-13.94 -1.63,-5.17 -3.26,-9.2 -4.83,-12.18l15.35 -10.24 65.86 98.8 -15.35 10.23c-2.2,-2.98 -5.49,-6.48 -9.75,-10.48 -4.34,-3.95 -7.69,-6.74 -10.21,-8.28 -4.33,-2.64 -8.88,-3.23 -13.74,-1.89 -4.9,1.45 -9.74,3.77 -14.47,6.93l-169.51 113c-8.2,5.46 -16.38,11.9 -24.47,19.28 -8.06,7.43 -14.64,15.77 -19.65,25.06 -5.08,9.64 -7.61,19.91 -7.65,30.73 -0.04,10.82 4.27,22.71 12.99,35.79 8.17,12.26 17.53,20.87 28.07,25.81 10.58,4.98 21.59,7.11 33.05,6.4 10.79,-0.6 21.05,-2.82 30.89,-6.59 9.76,-3.78 18.92,-8.56 27.56,-14.32l125.83 -83.89c16.01,-10.67 28.51,-20.23 37.48,-28.86 9,-8.55 13.9,-15.6 14.78,-21.14 1,-6.35 0.27,-13.53 -2.24,-21.59 -2.42,-8.12 -4.74,-13.98 -6.84,-17.78l15.35 -10.23 64.65 96.97 -15.36 10.23z"/>
   <path class="fil1" d="M4968.56 12163.3c-2.66,-2.69 -7.5,-6.08 -14.67,-10.07 -7.1,-4.03 -12.83,-6.42 -17.08,-7.04 -6.49,-0.7 -14.85,2.48 -25.11,9.51 -10.24,6.92 -22.39,16.75 -36.43,29.39l-200.62 180.69 -11.71 -13 108.51 -330.28 -141.3 127.28c-15.82,14.23 -27.33,25.98 -34.46,35.17 -7.11,9.19 -11.02,17.04 -11.73,23.41 -0.78,4.85 0.86,11.95 4.85,21.29 3.96,9.45 6.99,15.31 8.92,17.73l-13.72 12.34 -78.26 -86.91 13.7 -12.34c2.66,2.41 7.99,5.82 15.97,10.18 7.99,4.35 13.61,6.48 16.85,6.52 6.75,0.19 14.45,-2.4 22.97,-7.77 8.58,-5.32 21.78,-16.12 39.71,-32.25l134.92 -121.52c5.93,-5.33 11.17,-11.45 15.64,-18.42 4.51,-6.92 7.12,-13.15 7.92,-18.77 0.99,-7.37 0.33,-15.53 -2.15,-24.38 -2.54,-8.78 -5.34,-15.21 -8.52,-19.28l13.7 -12.34 54.5 60.51 -101.6 307.34 130.37 -117.41c15.94,-14.37 27.47,-26.23 34.61,-35.52 7.16,-9.3 10.75,-16.7 10.88,-22.26 -0.09,-5 -1.81,-11.68 -5.12,-20.14 -3.39,-8.39 -6.45,-14.31 -9.18,-17.86l13.72 -12.34 77.62 86.19 -13.7 12.35z"/>
   <path class="fil1" d="M5020.65 12658.62l-94.58 -71.78 11.16 -14.71c8.83,5.61 16.75,9.49 23.86,11.57 7.08,2.13 11.75,1.66 14.06,-1.37 0.96,-1.28 1.98,-2.85 3.1,-4.77 1.17,-2.01 2.02,-3.81 2.66,-5.56l31.08 -80.09 -79.56 -60.38c-10.3,7.33 -19.08,13.91 -26.48,19.66 -7.27,5.73 -14,11.08 -20.08,16.04 -5.87,4.89 -10.56,9.03 -13.89,12.28 -3.33,3.38 -5.91,6.21 -7.69,8.54 -4.18,5.52 -4.12,12.35 0.3,20.49 4.41,8.14 10.67,15.67 18.66,22.62l-11.16 14.69 -85.46 -64.86 11.15 -14.69c3,1.83 7.03,3.66 12.21,5.47 5.12,1.88 9.9,2.73 14.24,2.57 7.11,-0.51 13.33,-1.9 18.79,-4.22 5.46,-2.31 11.99,-6.14 19.71,-11.66 39.35,-28.14 83.4,-59.96 132.07,-95.5 48.64,-35.47 91.92,-67.09 129.98,-94.77l12.79 9.7 -116.58 310.85c-2.49,6.57 -4,12.32 -4.51,17.17 -0.43,4.9 -0.06,10.19 1.19,16.15 0.95,3.84 2.89,7.87 5.85,12.14 2.97,4.36 5.73,7.56 8.29,9.73l-11.16 14.69zm-0.46 -189.55l52.02 -140.01 -120.21 88.26 68.19 51.75z"/>
   <path class="fil1" d="M5576.02 12578.77c-3.36,-1.7 -9.04,-3.38 -17.1,-4.86 -8.02,-1.58 -14.22,-2.03 -18.43,-1.26 -6.39,1.4 -13.28,7.07 -20.78,17 -7.52,9.82 -15.9,23.01 -25.2,39.46l-132.7 235.12 -15.24 -8.59 -2.2 -347.64 -93.48 165.61c-10.45,18.54 -17.62,33.34 -21.47,44.31 -3.82,10.98 -5.03,19.67 -3.68,25.93 0.81,4.84 4.63,11.07 11.38,18.64 6.77,7.69 11.49,12.29 14.1,13.98l-9.08 16.06 -101.86 -57.49 9.08 -16.07c3.28,1.44 9.42,2.98 18.38,4.57 8.94,1.59 14.95,1.83 18.05,0.82 6.45,-1.95 12.92,-6.87 19.29,-14.68 6.44,-7.76 15.53,-22.2 27.39,-43.2l89.24 -158.12c3.93,-6.96 6.96,-14.42 8.97,-22.45 2.07,-7.99 2.57,-14.74 1.54,-20.3 -1.4,-7.32 -4.63,-14.84 -9.79,-22.44 -5.2,-7.52 -9.91,-12.72 -14.22,-15.56l9.07 -16.06 70.91 40.02 1.46 323.7 86.25 -152.79c10.54,-18.7 17.7,-33.61 21.52,-44.69 3.81,-11.09 4.87,-19.25 3.22,-24.56 -1.67,-4.72 -5.42,-10.49 -11.26,-17.45 -5.87,-6.89 -10.67,-11.53 -14.37,-14.03l9.06 -16.07 101.03 57.01 -9.08 16.08z"/>
   <path class="fil1" d="M6269.12 12761.44c-3.71,-0.17 -9.34,0.26 -16.69,1.51 -7.35,1.17 -13.51,3.52 -18.45,6.87 -4.88,3.54 -8.81,11.36 -11.78,23.64 -2.91,12.28 -5.24,27.3 -6.97,45.32l-15.35 159.54c-1.95,20.39 -6.87,37.74 -14.86,52.12 -8,14.37 -17.78,25.82 -29.37,34.51 -11.42,8.26 -23.19,13.9 -35.25,16.83 -12.07,2.95 -23.39,3.9 -34.12,2.87 -17.07,-1.64 -31.94,-6.01 -44.77,-13.13 -12.76,-7.01 -23.21,-15.86 -31.35,-26.63 -7.99,-10.65 -13.61,-22.51 -16.96,-35.66 -3.28,-13.14 -4.27,-26.52 -2.94,-40.39l20.87 -217.01c0.57,-6 0.24,-11.11 -0.88,-15.32 -1.1,-4.21 -3.88,-8.21 -8.2,-12.2 -3.11,-2.7 -7.23,-5.06 -12.28,-6.96 -5.04,-2.01 -9.19,-3.3 -12.51,-3.98l1.77 -18.35 118.2 11.36 -1.76 18.36c-3.7,-0.17 -8.49,0.17 -14.29,0.95 -5.8,0.86 -10.09,1.69 -12.87,2.67 -4.78,1.68 -8.12,4.84 -10.14,9.45 -1.98,4.72 -3.23,9.95 -3.78,15.59l-19.5 202.81c-0.94,9.8 -1.12,20.21 -0.51,31.14 0.67,10.94 2.97,21.32 7,31.05 4.28,10.04 10.63,18.49 19,25.36 8.36,6.85 20.31,11.04 35.93,12.54 14.68,1.42 27.26,-0.41 37.74,-5.46 10.55,-5.05 19.17,-12.23 25.85,-21.56 6.36,-8.75 11.12,-18.1 14.42,-28.12 3.23,-9.94 5.31,-20.06 6.31,-30.4l14.47 -150.54c1.84,-19.16 2.32,-34.88 1.3,-47.28 -0.94,-12.38 -3.31,-20.63 -7.05,-24.83 -4.29,-4.77 -10.32,-8.75 -18.15,-11.9 -7.82,-3.25 -13.84,-5.16 -18.1,-5.92l1.76 -18.37 116.01 11.16 -1.75 18.36z"/>
   <path class="fil1" d="M6653.97 12772.99c-3.78,0.14 -9.56,1.42 -17.34,4.01 -7.77,2.5 -13.42,5.11 -16.74,7.83 -4.9,4.31 -8.2,12.61 -9.96,24.93 -1.82,12.23 -2.78,27.83 -2.94,46.72l-2.39 269.98 -17.49 -0.14 -170.13 -303.19 -1.68 190.17c-0.19,21.28 0.69,37.7 2.64,49.15 1.97,11.46 5.11,19.66 9.32,24.49 3.05,3.84 9.42,7.44 18.98,10.8 9.65,3.46 16.01,5.2 19.1,5.41l-0.17 18.45 -116.95 -1.03 0.15 -18.46c3.59,-0.31 9.7,-1.96 18.3,-4.89 8.61,-2.95 13.98,-5.64 16.19,-8.02 4.71,-4.83 7.99,-12.25 9.81,-22.18 1.86,-9.91 2.84,-26.93 3.05,-51.06l1.61 -181.56c0.07,-7.98 -0.88,-15.97 -3.01,-23.98 -2.06,-8 -4.89,-14.14 -8.48,-18.52 -4.76,-5.72 -11.23,-10.74 -19.43,-14.9 -8.18,-4.05 -14.82,-6.33 -19.97,-6.74l0.17 -18.44 81.42 0.71 157.89 282.59 1.55 -175.45c0.2,-21.45 -0.75,-37.96 -2.79,-49.51 -2.02,-11.55 -5.04,-19.2 -9.06,-23.06 -3.74,-3.31 -9.81,-6.55 -18.29,-9.83 -8.47,-3.18 -14.91,-4.92 -19.37,-5.31l0.17 -18.45 115.99 1.03 -0.15 18.45z"/>
   <path class="fil1" d="M6905.85 13101.22l-128.07 10.21 -1.47 -18.39c3.59,-0.64 8.76,-1.59 15.53,-2.85 6.8,-1.16 11.49,-2.6 14.19,-4.25 4.19,-2.55 7.17,-5.9 8.9,-9.95 1.68,-4.05 2.2,-9.52 1.66,-16.42l-21.21 -266.31c-0.47,-6.01 -1.57,-11.01 -3.39,-14.94 -1.76,-3.97 -5.52,-7.04 -11.21,-9.44 -4.2,-1.71 -9.35,-3.26 -15.58,-4.63 -6.22,-1.28 -11.3,-1.94 -15.23,-1.99l-1.47 -18.38 128.09 -10.21 1.46 18.39c-4.16,0.51 -9.04,1.52 -14.68,3.13 -5.66,1.51 -10.53,3.42 -14.7,5.44 -4.91,2.53 -8.05,6.15 -9.4,10.9 -1.4,4.82 -1.8,10.1 -1.36,15.76l21.18 266.05c0.46,5.66 1.82,10.63 4.08,14.89 2.27,4.27 5.91,7.53 10.76,9.74 2.92,1.18 7.61,2.33 14.1,3.41 6.43,1.18 11.9,1.63 16.36,1.45l1.46 18.39z"/>
   <path class="fil1" d="M7231.7 12651.38c-3.27,1.25 -6.94,3.46 -11.09,6.67 -4.2,3.32 -7.35,6.69 -9.63,10.13 -3.25,4.87 -5.26,10.48 -6.1,16.71 -0.84,6.34 -1.29,13.58 -1.49,21.85 0.01,28.9 0.43,73.91 1.44,134.96 0.91,60.96 2.07,124.47 3.54,190.5l-15.85 5.15c-39.06,-57.83 -76.78,-113.56 -113.1,-167.13 -36.24,-53.6 -60.83,-89.82 -73.71,-108.58 -3.15,-4.57 -6.63,-8.39 -10.5,-11.41 -3.8,-3.07 -8.33,-5.69 -13.7,-7.77 -4.35,-1.66 -8.82,-2.55 -13.5,-2.52 -4.64,-0.08 -8.84,0.35 -12.47,1.16l-5.7 -17.55 112.15 -36.43 5.7 17.55c-9.31,3.76 -17.01,7.57 -22.93,11.55 -6.02,3.91 -8.24,8.18 -6.74,12.81 0.59,1.77 1.57,3.88 2.88,6.17 1.24,2.29 2.36,4.17 3.22,5.47 9.96,14.68 26.2,38.49 48.61,71.5 22.45,33.1 54.33,80.18 95.74,141.24 -0.2,-33.7 -0.79,-73.23 -1.65,-118.94 -0.88,-45.58 -1.67,-76.85 -2.38,-93.7 -0.64,-16.38 -1.53,-27.57 -2.74,-33.51 -1.17,-6.06 -2.36,-10.81 -3.53,-14.43 -1.24,-3.79 -3.57,-6.58 -7.02,-8.27 -3.42,-1.68 -7.6,-2.75 -12.51,-3.2 -4.76,-0.22 -9.41,-0.12 -14.05,0.47 -4.59,0.56 -9.14,1.38 -13.81,2.34l-5.71 -17.56 100.94 -32.78 5.69 17.55z"/>
   <path class="fil1" d="M7638.01 12733.1l44.11 99.45 -211.36 106.63 -8.31 -16.48c3.45,-2.14 7.91,-5.18 13.33,-9.2 5.49,-4.06 8.83,-7.04 10.15,-9 2.59,-4.29 3.76,-8.65 3.36,-13.13 -0.34,-4.48 -1.97,-9.52 -4.84,-15.23l-119.42 -236.7c-2.55,-5.06 -5.51,-9.25 -8.8,-12.56 -3.33,-3.27 -7.69,-5.04 -13.14,-5.49 -4.23,-0.33 -9.51,0.04 -15.72,1.28 -6.24,1.17 -10.97,2.47 -14.38,3.78l-8.31 -16.46 197.03 -99.41 40.03 79.35 -13.48 6.79c-8.34,-10.59 -19.81,-20.39 -34.38,-29.63 -14.64,-9.21 -25.9,-12.66 -33.67,-10.24 -4.06,1.26 -8.71,3 -14.02,5.28 -5.3,2.29 -11.19,5.06 -17.82,8.4l-39.99 20.18 66.04 130.89 28.73 -14.48c9.19,-4.64 15.33,-9.23 18.43,-13.59 3.1,-4.34 4.93,-10.02 5.54,-16.89 0.35,-5.84 -0.38,-12.93 -2.33,-21.37 -1.96,-8.46 -4.29,-16.12 -7.04,-23.08l13.48 -6.79 64.95 128.76 -13.46 6.79c-4.25,-7.19 -9.49,-14.39 -15.77,-21.65 -6.24,-7.18 -11.48,-12.1 -15.62,-14.66 -6.71,-4.18 -12.93,-6 -18.58,-5.44 -5.63,0.55 -12.42,2.79 -20.14,6.67l-28.71 14.5 49.86 98.84c4.99,9.89 9.5,17.45 13.41,22.63 3.99,5.15 8.26,8.44 12.87,9.8 4.53,1.39 9.79,1.13 15.61,-0.72 5.79,-1.93 13.68,-5.32 23.61,-10.32 3.91,-1.98 9.13,-4.6 15.6,-7.88 6.44,-3.24 11.74,-6.32 15.83,-9.17 4.21,-2.92 8.37,-6.4 12.41,-10.43 3.99,-4.11 6.31,-8.06 6.99,-11.88 1.69,-10.19 1.83,-24.37 0.24,-42.44 -1.56,-18.19 -3.29,-31.22 -5.24,-39.19l12.92 -6.51z"/>
   <path class="fil1" d="M8068.71 12586.98l-61.66 45.73c-34.22,-17.59 -64.32,-32.37 -90.34,-44.31 -25.98,-11.99 -53.36,-23.92 -82.16,-35.81l-23.41 17.38 69.69 93.96c3.59,4.85 7.37,8.67 11.27,11.51 3.86,2.78 8.51,3.75 13.85,2.78 2.67,-0.43 6.71,-2.01 12.15,-4.81 5.47,-2.75 9.92,-5.27 13.38,-7.63l11 14.82 -96.86 71.84 -10.99 -14.82c2.37,-2.2 5.75,-5.48 10.13,-9.83 4.43,-4.27 7.15,-7.73 8.24,-10.3 1.87,-4.16 2.29,-8.55 1.13,-13.1 -1.11,-4.6 -3.66,-9.54 -7.68,-14.96l-158.84 -214.15c-3.65,-4.92 -7.36,-8.78 -11.26,-11.73 -3.85,-3.02 -8.5,-3.98 -13.9,-2.96 -3.65,0.73 -8.01,2.2 -13.06,4.39 -5.08,2.11 -9.2,4.17 -12.43,6.14l-10.99 -14.82 105.73 -78.42c9.68,-7.2 19.73,-12.66 30.11,-16.39 10.39,-3.73 21.17,-5.32 32.29,-4.72 10.78,0.6 21.52,3.91 32.15,9.95 10.62,6.03 20.7,15.34 30.1,28.02 8.46,11.4 14.58,22.54 18.38,33.31 3.8,10.77 5.43,21.26 4.95,31.55 -0.4,9.58 -2.39,19.11 -5.94,28.48 -3.51,9.45 -8.24,18.7 -14.14,27.82 25.67,11 47.09,20.29 64.41,28 17.28,7.61 38.35,16.93 63.27,27.71 10.97,4.9 19.76,7.87 26.57,9.01 6.71,1.09 12.95,1.55 18.54,1.26 4.13,-0.3 8.66,-1.44 13.64,-3.59 4.87,-2.18 8.77,-4.19 11.69,-6.13l10.99 14.82zm-248.71 -157.87c-13.32,-17.95 -27.8,-29.19 -43.61,-33.81 -15.7,-4.58 -30.91,-1.48 -45.4,9.27l-27.43 20.35 94.26 127.1 21.15 -15.7c14.82,-11 22.68,-26.32 23.4,-45.96 0.78,-19.68 -6.67,-40.1 -22.37,-61.25z"/>
   <path class="fil1" d="M8188.9 12272.22c10.26,2.31 19.94,6.32 29.05,12.06 9.06,5.67 18.19,13.56 27.38,23.66 21.96,24.15 33.08,50.24 33.6,78.43 0.41,28.17 -9.59,51.53 -29.99,70.1 -9.44,8.57 -20.56,15.22 -33.4,20.06 -12.85,4.73 -25.14,7.53 -36.89,8.38l6.38 19.87 -11.93 10.84 -87.07 -91.53 12.07 -10.99c13,9.28 25.38,17.07 37.09,23.33 11.84,6.27 24.06,10.96 36.84,14.09 12.04,2.84 23.57,3.38 34.54,1.67 10.97,-1.81 21,-6.87 30.09,-15.13 6.86,-6.23 11.76,-12.86 14.74,-19.78 3.04,-6.96 4.23,-14.02 3.55,-21.08 -0.69,-7.18 -2.83,-14.22 -6.49,-21.31 -3.63,-7.14 -8.84,-14.39 -15.58,-21.81 -9.91,-10.9 -21.55,-18.89 -34.91,-24 -13.31,-5.04 -26.87,-5.77 -40.72,-2.04 -9.49,2.51 -20.18,5.52 -32.21,9.03 -11.96,3.57 -22.69,6.26 -31.94,8.2 -18.26,3.9 -35.73,3.25 -52.54,-1.98 -16.75,-5.25 -33.37,-16.9 -49.78,-34.94 -9.42,-10.36 -16.63,-21.54 -21.56,-33.49 -4.82,-11.92 -7.43,-24.18 -7.85,-36.76 -0.28,-11.85 1.74,-23.28 6.09,-34.19 4.41,-10.84 10.85,-20.18 19.39,-27.93 9.73,-8.87 20.14,-14.86 31.37,-18.01 11.12,-3.16 22.25,-5 33.24,-5.65l-5.79 -18.61 11.93 -10.84 83.53 89.49 -12.01 10.94c-11.68,-8.45 -23.18,-16.1 -34.47,-23.1 -11.39,-7.02 -22.76,-12.39 -34.11,-16.09 -11.01,-3.53 -21.6,-4.8 -31.75,-3.61 -10.14,1.19 -19.73,5.83 -28.66,13.96 -9.39,8.54 -13.88,19.7 -13.38,33.62 0.46,13.86 5.77,26.42 16.04,37.7 10.74,11.81 21.77,19.66 33.07,23.51 11.3,3.86 23.29,4.61 35.99,2.16 11.33,-2.04 21.95,-4.62 31.94,-7.71 9.93,-3.15 19.9,-5.75 29.78,-8.04 8.99,-2.05 18.19,-3.46 27.48,-4.24 9.41,-0.77 18.66,-0.19 27.85,1.76z"/>
   <path class="fil1" d="M8509.31 12160.86l-80.97 99.76 -14.33 -11.63c2.02,-3.05 4.89,-7.43 8.67,-13.2 3.83,-5.73 6.03,-10.12 6.7,-13.19 1.05,-4.81 0.66,-9.27 -1.06,-13.33 -1.78,-4 -5.37,-8.16 -10.74,-12.52l-207.43 -168.36c-4.7,-3.81 -9.05,-6.45 -13.17,-7.85 -4.08,-1.46 -8.89,-0.86 -14.56,1.61 -4.13,1.86 -8.8,4.52 -14.09,8.08 -5.23,3.62 -9.22,6.84 -11.96,9.66l-14.32 -11.63 80.97 -99.76 14.32 11.63c-2.49,3.35 -5.13,7.58 -7.86,12.78 -2.81,5.14 -4.79,9.98 -6.21,14.4 -1.55,5.29 -1.09,10.07 1.41,14.31 2.53,4.34 6.07,8.28 10.48,11.86l207.23 168.19c4.4,3.58 8.94,6.02 13.59,7.32 4.66,1.31 9.53,0.93 14.46,-1.07 2.88,-1.29 6.95,-3.91 12.2,-7.86 5.29,-3.83 9.4,-7.48 12.35,-10.83l14.32 11.63z"/>
   <path class="fil1" d="M8517.85 11693.96l-7.66 11.54c-5.93,-2.47 -13.25,-4.76 -22.16,-6.9 -8.83,-2.08 -17.56,-3.67 -26.09,-4.64 -8.89,-1.05 -17.08,-1.22 -24.73,-0.61 -7.56,0.65 -12.98,2.57 -16.11,5.84 -2.88,3.04 -6.2,7.08 -9.98,12.15 -3.8,5.06 -7.17,9.81 -10.13,14.27l-6.46 9.71 245.67 163.18c4.8,3.2 9.69,5.3 14.71,6.4 4.94,1.06 9.87,0.37 14.62,-2.15 2.36,-1.3 6.47,-4.6 12.53,-9.88 5.95,-5.26 10.21,-9.6 12.75,-13.1l15.37 10.21 -74.51 112.17 -15.37 -10.22c1.8,-3.34 4.35,-8.46 7.83,-15.46 3.37,-7 5.18,-12.12 5.56,-15.42 0.54,-4.99 -0.33,-9.44 -2.7,-13.57 -2.41,-4.07 -6.57,-8.07 -12.48,-11.99l-247.66 -164.51 -6.45 9.71c-2.32,3.49 -5.02,7.87 -8.22,13.16 -3.15,5.23 -5.97,10.45 -8.34,15.62 -1.88,4.11 -1.62,9.8 0.86,17.13 2.56,7.38 5.89,14.86 10.16,22.55 4.26,7.69 9.19,15.17 14.8,22.6 5.61,7.43 10.41,13.18 14.54,17.39l-7.78 11.72 -83.35 -55.36 137.44 -206.9 83.34 55.36z"/>
   <path class="fil1" d="M8591.35 11317.31c-0.72,2.23 -0.98,5.97 -0.88,11.41 0.2,5.41 0.84,9.51 1.93,12.25 1.92,6.4 3.55,10.9 4.99,13.48 1.36,2.54 5.43,8.11 12.31,16.66 13.74,16.87 28,32.99 42.86,48.53 14.86,15.55 33.75,35.09 56.73,58.73 8.42,8.73 15.42,15.1 21.16,19.12 5.63,4.05 14.4,8.41 26.33,13.23l65.3 26.37c5.75,2.33 11.13,3.47 16.12,3.42 4.92,-0.09 9.63,-1.82 13.92,-5.11 2.38,-2.08 5.82,-6.09 10.34,-12.1 4.59,-5.92 7.77,-10.92 9.6,-14.99l17.11 6.91 -50 123.77 -17.11 -6.91c1.09,-3.62 2.62,-9.08 4.54,-16.44 1.9,-7.3 2.7,-12.59 2.4,-15.9 -0.67,-5.45 -2.7,-9.89 -6.22,-13.24 -3.44,-3.31 -8.26,-6.3 -14.35,-8.75l-83.16 -33.59c-2.54,-1.03 -7.71,-1.71 -15.52,-2.05 -7.82,-0.29 -16.63,-0.51 -26.29,-0.5 -21.68,-0.09 -45.17,0.04 -70.45,0.33 -25.38,0.33 -47.16,0.7 -65.24,1.17 -10.87,0.42 -19.16,1.29 -25.13,2.57 -5.98,1.29 -11.55,3.26 -16.74,5.89 -3.59,2.04 -6.85,4.87 -9.84,8.53 -3,3.61 -5.26,7.05 -6.94,10.3l-17.12 -6.91 45.56 -112.77 17.11 6.91c-4.81,12.85 -7.34,22.18 -7.47,28.19 -0.22,5.99 1.44,9.69 4.98,11.12 0.99,0.39 2.87,0.72 5.54,0.98 2.7,0.19 6.16,0.35 10.4,0.51 4.85,0.1 10.42,0.05 16.74,0.02 6.24,-0.06 12.28,-0.07 18.09,-0.02 16.58,-0.11 33.31,-0.3 50.01,-0.67 16.59,-0.32 38.29,-0.79 65.15,-1.42 -32.77,-35.87 -58.51,-63.59 -77.07,-82.98 -18.56,-19.41 -30.14,-30.09 -34.66,-31.91 -3.61,-1.46 -7.09,-1.61 -10.17,-0.41 -3.06,1.2 -5.99,3.27 -8.64,6.27 -2.76,3.03 -5.18,6.65 -7.27,10.68 -2.14,4.09 -4.12,7.81 -6.08,11.23l-17.1 -6.9 37.12 -91.92 17.11 6.91z"/>
   <path class="fil1" d="M5696.59 13557.29c73.33,-2.56 118.77,-40.07 136.29,-112.54 9.33,-61.5 -8.42,-98.63 -53.21,-111.35 -41.72,-5.24 -68.53,15.32 -80.46,61.59 -5.07,42.9 9.67,69.59 44.24,80.09 11.11,2.43 22.97,0.64 35.62,-5.42 -18.08,45.94 -47.52,71.31 -88.36,76.08l5.88 11.55zm46.24 -160.09c6.1,-38.78 17.65,-55.8 34.54,-51.1 18.83,4.12 24.33,27.79 16.52,71.09 -1.88,10.35 -5.05,22.88 -9.45,37.56 -11.66,5.28 -21.3,7.05 -28.97,5.37 -17.3,-2.78 -21.47,-23.79 -12.64,-62.92z"/>
   <path class="fil1" d="M5940.36 13613.3l33.85 4.21 94.46 -206.33 1.25 -14.32 -134.18 -16.7 -10.73 62.26 11.74 1.46c2.63,-10.28 5.78,-16.17 9.46,-17.61 2.8,-2.56 9.48,-3.15 19.88,-1.84l66.42 8.26 -92.15 180.61z"/>
   <path class="fil1" d="M6279.1 13439.82c-74.2,2.36 -119.9,41.26 -137.04,116.7 -8.14,59.88 9.81,95.6 53.96,107.19 41.38,7.12 67.58,-12.63 78.65,-59.1 6.28,-44.59 -7.94,-71.66 -42.68,-81.2 -11.93,-2.61 -24.23,-0.92 -36.88,5.15 15.81,-43.49 45.3,-68.85 88.36,-76.08l-4.37 -12.66zm-47.5 159.75c-5.44,39.95 -17.01,57.44 -34.85,52.54 -17.95,-3.93 -22.83,-28.47 -14.69,-73.64 1.53,-8.42 3.67,-17.78 6.4,-27.9 0.51,-2.83 0.86,-4.75 1.02,-5.65 10.08,-6.63 19.8,-8.88 29.21,-6.82 17.25,2.76 21.56,23.31 12.91,61.47z"/>
   <polygon class="fil1" points="6342.36,13596.97 6342.61,13624.25 6402.14,13625.75 6401.88,13598.47 "/>
   <path class="fil1" d="M6552.33 13448.96l-18.34 -1.04c-18.79,20.92 -41.42,37.83 -67.92,50.65l5.05 10.34c12.26,-3.1 25.53,-8.6 39.69,-16.37l-3.23 160.6c-0.17,8.56 -4.24,13.11 -12.09,13.65l-20.97 -1.19 -0.25 12.9 107.48 6.11 0.26 -12.91 -22.32 -1.26c-7.83,-0.45 -11.69,-5.94 -11.48,-16.46l4.12 -205.02z"/>
   <path class="fil1" d="M6689.5 13683.46c72.66,-10.16 113.97,-52.17 123.88,-126.08 2.91,-62.13 -18.59,-97.21 -64.48,-105.23 -42.02,-0.88 -66.56,22.33 -73.62,69.6 -0.6,43.2 16.83,68.22 52.3,75.09 11.3,1.26 22.93,-1.75 34.87,-9.09 -13.22,47.55 -39.86,75.84 -80,84.82l7.05 10.89zm29.4 -164.03c2.03,-39.21 11.75,-57.32 29.04,-54.41 19.15,2.15 27.09,25.12 23.8,69 -0.78,10.49 -2.64,23.28 -5.51,38.34 -11.03,6.45 -20.44,9.21 -28.24,8.34 -17.49,-0.97 -23.83,-21.43 -19.09,-61.27z"/>
   <path class="fil1" d="M6915.4 13645.45l129.83 -19.1 -5.49 -65.82 -10.37 1.53c1.76,19.02 -4.85,29.2 -19.71,30.4l-62.35 9.16c7.94,-14.7 19.73,-32.81 35.31,-54.45 26.66,-33.83 36.84,-62.84 30.59,-87.08 -9.89,-39.09 -33.3,-57.34 -70.18,-54.82 -36.89,7.33 -54.61,34.11 -53.2,80.26l12.97 -1.91c0.52,-26.16 10.57,-41.66 30.13,-46.46 21.83,-2.28 35.95,11.59 42.34,41.55 10.1,20.78 -6.62,65.2 -50.05,133.39 -5.52,8.54 -9.6,15.45 -12.17,20.65l2.35 12.7z"/>
   <path class="fil1" d="M7229.28 13344.08c-70.64,22.8 -103.79,72.83 -99.4,150.06 8.76,59.8 35.89,89.15 81.53,88.07 41.73,-4.61 61.45,-30.84 59.21,-78.57 -6.3,-44.56 -27.46,-66.65 -63.47,-66.2 -12.19,0.79 -23.55,5.82 -34.01,15.14 3.15,-46.15 24.48,-78.68 63.84,-97.55l-7.7 -10.95zm-1.43 166.64c5.82,39.89 -0.46,59.92 -18.96,60.14 -18.33,1.2 -29.82,-21.04 -34.49,-66.69 -0.86,-8.53 -1.39,-18.11 -1.56,-28.58 -0.29,-2.87 -0.5,-4.81 -0.59,-5.72 7.85,-9.15 16.57,-14.01 26.19,-14.64 17.34,-2.11 27.16,16.43 29.41,55.49z"/>
   <path class="fil1" d="M8599.05 8759.46c-0.29,0.31 -0.09,99.76 -76.08,141.62 0,0 108.82,29.75 140.13,40.95 0,0 36.61,-4.17 -22.46,-58.97 0,0 -25.84,-3.41 -34.25,-17.44 0,0 16.06,2 24.67,-2.4 0,0 -17.98,-33.87 10.39,-12.3l28.36 29.89c0,0 25.06,-6.01 128.04,-5.37 0,0 59.11,13.23 80.1,-38.1 0,0 17.16,74.33 -93.44,60.78 0,0 -54.6,-13.08 -94.35,-5.05 0,0 30.11,46.94 13.06,62.26 0,0 174.76,71.42 149.85,117.19 0,0 -95.94,17.68 -245.5,13.27 0,0 34.79,61.92 -35.68,61.68 0,0 -155.59,-56.66 -166.75,-53.79 0,0 -11.94,1.76 -29.57,14.16 0,0 118.95,85.77 76.83,123.73 0,0 -74.77,-18.83 -110.37,-56.92 0,0 123.29,54.47 77.73,-8.18 0,0 -53.6,-47.02 -65.35,-38.75 0,0 -145.6,165.62 -183.56,140.83 0,0 -56.5,-86.52 -47.25,-137.89 0,0 20.46,101.91 79.78,105.02 0,0 102.84,-72.38 137.33,-114.93 0,0 -158.69,-86.05 -171.61,-83.6 0,0 -53.19,-67.25 -30.29,-61.76 0,0 193.92,94.48 228.16,120.23 0,0 9.41,-19.92 107.08,-3.92 0,0 148.18,17.01 76.95,-9.29 0,0 -150.48,-78.53 -185.87,-126.74 0,0 176.57,89.07 191.46,116.3 0,0 28.24,-10.14 20.94,-22.04 0,0 10.6,-0.16 16.47,12.74 0,0 258.39,9.12 215.28,-26.23 0,0 -119.46,-75.27 -145.11,-70.6l-65.07 2.01 -11.35 31.1 -9 -32.59c0,0 -72.37,-3.81 -83.54,-16.63 0,0 160.36,10 91.88,-17.22 0,0 -123.08,-36.24 -159.64,-10.5 0,0 2.9,-38.54 35.75,-72.61 0,0 20.36,-16.76 36,-38.72 0,0 -4.35,57.8 -34.04,81.13l35.11 5.7c0,0 65.4,-47.24 96.01,-145.42l2.14 4.45c0,0 0.92,2.62 0.63,2.92z"/>
   <path class="fil1" d="M8677.44 8994.06c0,0 -9.64,47.19 -86.05,38.87l-40.61 -15.55c0,0 74.99,10.06 125.79,-26.44l0.42 1.67 0.45 1.45z"/>
   <path class="fil1" d="M7281.43 7963.93c0,0 67.34,-100.03 46.27,17.7 0,0 -89.86,181.27 -124.48,213.64 0,0 83.53,-8.14 126.19,-34.68l3.41 -58.13c0,0 22.88,65.43 7.69,87.26 0,0 -92.89,46.03 -164.7,50.36 0,0 -122.34,163.32 -240.09,162.51 0,0 150.33,-53.08 177.13,-158.94l-70.42 0.71c0,0 -31.81,-10.78 -3.53,-22.09l118.7 -19.57 118.4 -220.11 5.43 -18.66z"/>
   <path class="fil1" d="M7175.2 8278.3c0.25,-0.66 100.47,190.6 193.19,217.73 0,0 16.88,26.9 -48.98,15.34 0,0 -55.99,-5.52 -71.34,-56.05 0,0 -49.28,-130.9 -74.71,-164.86l-3.71 -7.47c0,0 5.3,-4.03 5.55,-4.69z"/>
   <path class="fil1" d="M4008.68 9047.78c-1.03,-0.54 154.96,62.38 164.12,115.41 0,0 -1.8,-52.14 -52.55,-106.06 0,0 -39.08,-24.53 -105.21,-12.45l-3.62 0.95c0,0 -1.7,2.68 -2.74,2.15z"/>
   <path class="fil1" d="M4540.74 9282.18c0,0 6.25,39.65 -38.55,16.44 0,0 -13.93,-6.96 0.12,-25.04 0,0 -61.83,-148.53 -12.96,-149.22 0,0 32.81,15.83 53.25,41.36 0,0 15.32,-9.35 2.12,-23.47 0,0 -31.32,-86.18 -61.53,-111.58 0,0 2.31,-46.53 29.44,-25.45 0,0 43.88,53.42 63.98,69.03 0,0 203.43,171.56 230.46,246.68 0,0 17.1,42.27 -82.6,15.07 0,0 68.14,-8.91 24.74,-48.43 0,0 -188.06,-207.94 -217.66,-215.47 0,0 63.57,142.15 85.42,180.39 0,0 -20.53,28.5 -47.73,5.44 0,0 -87.61,-158.89 -86.01,-84.21 0,0 33.72,70.65 49.34,98.24l4.33 6.23 3.84 3.99z"/>
   <path class="fil1" d="M4408.98 8966.69c0,0 43.98,-86.13 26.97,-150.9 0,0 -0.44,-38.15 24.7,-15.19 0,0 107.15,143.66 352.85,301.4 0,0 -83.04,54.77 -98.81,51.36 0,0 137.78,-23.3 169.75,-36.01 0,0 9.63,-12.4 -33.61,-34.95 0,0 -318.35,-223.01 -353.61,-305.62 0,0 -44.36,-87.47 -83.17,-13.81 0,0 -0.52,179.62 -5.14,191.49l-4.05 12.32 4.12 -0.09z"/>
   <path class="fil1" d="M4443.03 8981.12c0,0 68.94,-52.41 120.33,-3.39l24.01 55.96c0,0 33.89,21.77 71.48,17.32 0,0 -15.52,30.7 -55.57,16.87 0,0 -38.02,-21.35 -45.98,-52.09 0,0 -24.65,-61 -118.42,-31.06l2.84 -2.52 1.31 -1.09z"/>
   <path class="fil1" d="M4324.59 9359.28c0,0 202.27,116.44 128.77,26.2 0,0 -71.92,-108.88 -101.3,-118.45 0,0 -18.83,5.26 -27.12,-40.95l1.42 -153.51c0,0 -182.98,-186.33 -116.33,-165.48l20.28 4.71 104.73 -9.2c0,0 20.57,-19.36 51.96,16.07 0,0 -23.38,189.19 -1.72,250.47 0,0 1.42,12.7 -24.8,46.45 0,0 -6.55,8.44 23.58,31.85 0,0 78.87,103.79 108.69,146.28 0,0 108.21,132.38 104.14,156.28 0,0 -31.1,33.82 -61.59,0.48 0,0 -96.79,-84.86 -118.83,-100.05l-78.91 -76.76 -12.97 -14.39zm-78.02 -438c0,0 56.24,-7.86 66.9,-1.29 0,0 30.19,18.3 32.34,30.28 0,0 -1.26,64.32 -18.18,52.91l-76.24 -67.83 -4.82 -14.07z"/>
   <path class="fil1" d="M5394.95 8267.8c0.84,2.56 13.48,16.52 162.71,-129.67 0,0 -15.68,-164.06 17.86,-181.29 0,0 38.32,85.35 28.22,139 0,0 32.08,-0.61 60.38,-54.97 0,0 -20.72,-35.12 -1.81,-19.63 0,0 35.74,14.13 26.07,26.85 0,0 -131.8,178.3 -232.3,216.34l-69.22 10.34c0,0 7.25,-9.53 8.09,-6.97z"/>
   <path class="fil1" d="M5491.65 8540.46c0,0 0.29,31.63 -26.21,-10.89 0,0 -18.92,-57.81 21.7,-183.3 0,0 92.38,-144.18 219.49,-224.84 0,0 25.44,-36.39 54.59,-23.37 0,0 4.2,-4.06 24.52,74.89 0,0 51.67,221.17 98.41,300.58 0,0 16.61,101.42 -88.67,41.79 0,0 79.08,13.39 60.6,-43.03 0,0 -95.28,-244.53 -96.59,-316.17 0,0 -6.55,-36.89 -58.15,-8.62 0,0 -166.13,130.48 -156.56,176.61 0,0 40.53,43.54 75.56,-48.04 0,0 38.49,-34.5 39.5,2.35 0,0 -46.33,69.75 -14.9,81.24 0,0 69.53,5.39 47.67,73.78l17.83 92.49c0,0 -7.69,14.53 -35.54,-66.27 0,0 -42.85,54.93 -54.27,20.05l14.46 -90.97c0,0 -35.99,-12.8 -19.31,-42.09 0,0 -10.34,-23.11 -0.91,-28.14 0,0 -30.1,26.36 -24.06,44.83 0,0 -14.87,13.71 -30.03,-3.04 0,0 -42.94,-21.3 -65.35,24.32 0,0 -37.16,72.37 -13.02,141.89l3.97 8.39 5.27 5.56zm162.02 -154.12c0,0 25.28,18.1 19.69,47.48 0,0 -28.07,32.52 -34.45,13.03l6.35 -52.4 8.41 -8.11z"/>
   <path class="fil1" d="M6510.58 8467.58c1147.51,0 2083.41,935.89 2083.41,2083.4 0,1147.49 -935.9,2083.36 -2083.41,2083.36 -1147.47,0 -2083.37,-935.87 -2083.37,-2083.36 0,-1147.51 935.9,-2083.4 2083.37,-2083.4zm-1802.57 1195.98c0,0 41.28,-80.97 85.84,-157.07 0,0 509.84,-65.14 1132.1,-403.8 0,0 33.05,-30.29 71.6,0l181.73 154.18 327.63 -346.92 319.41 346.92 212 -162.45c0,0 30.3,-8.24 49.56,8.27 0,0 828.77,454.3 1123.38,377.21 0,0 102.98,174.55 101.88,184.47l-462.57 1.11 -256.07 -113.99 176.21 355.18 -162.13 -0.31 -1.23 227 -169.78 1.54 0 90.24 -142.26 -67.3 140.72 -220.28 -290.63 -6.12 139.21 -339.55 -330.42 159.06 -900.97 -1.54 -329.98 -159.36 127.63 337.83 -275.29 0 130.15 227.73 -125.13 62.56 0 -87.59 -170.18 2.52 0 -227.76 -175.17 0 187.69 -355.34 -262.76 112.61 -452.17 0.95zm1303.92 1848.04l997.32 3.04 12.25 113.19 -1030.99 6.12c0,0 21.42,-131.56 21.42,-122.35zm-45.9 204.95l-12.23 67.32 1101.36 0 -24.49 -67.32c0,0 -1061.58,0 -1064.64,0zm-39.78 168.27l0 73.43 1156.44 0 -6.11 -73.43c0,0 -1150.33,6.11 -1150.33,0zm-24.45 162.13l-3.07 82.61 1208.43 0 0 -88.72 -1205.36 6.11zm21.41 -538.44l-1183.97 -6.12c0,0 250.82,479.78 705.97,752.88 0,0 408.6,283.68 978.07,304.86 0,0 575.84,44.45 1107.24,-277.33 0,0 443.94,-222.97 746.82,-779.16l-1186.69 5.5 129.39 702.12 -1440.01 -5.51c0,0 145.92,-703.36 143.18,-697.24zm1270.88 -1021.79l-106.35 64.31 -0.61 864.96 119.87 -8.52c0,0 -6.73,-924.48 -12.91,-920.75zm475.15 260.43l-196.14 0 0 319.99 196.14 0 0 -319.99zm-669.29 -130.11l-267.1 2.76 -2.74 622.25 269.84 140.42c0,0 0,-768.18 0,-765.43zm-619.68 -71.6l256.07 2.78 5.49 751.66 250.57 132.17 -765.43 0 253.3 -134.91 0 -751.7zm-368.95 71.6l267.08 2.76 2.74 622.25 -269.82 140.42c0,0 0,-768.18 0,-765.43zm-214.51 -151.52l126.71 85.51 0.62 864.96 -126.66 -1.74c0,0 -6.66,-952.77 -0.67,-948.73zm-1043.06 -716.82l473.41 0 -127 241.34 228.63 2.13 0 241.34 156.66 0 -2.12 141.82 -57.17 0 -1 -83.57 1.33 -0.72 -256.6 1.11 -1.11 -30.85 33.04 0 1.25 -115.52 -367.74 -0.93 0 116.28 35.01 0 -0.35 29.78 -211.5 1.24 -4.59 1026.15c0,0 -230.54,-529.87 -127.31,-1080.39l223.64 -168.57c0,0 -4.54,-320.64 3.52,-320.64zm-83.23 -1l1.67 271.93 -123.53 97.44c0,0 62.71,-270.87 121.86,-369.37zm911.2 563.43l78.76 67.53 -76.26 -1.25 -2.5 -66.28zm-239.67 436.02l196.1 0 0 319.99 -196.1 0 0 -319.99zm544.43 -983.97l140.74 59.67 -89.33 636.33 -264.33 -185.39 148.7 -80.78 -104.64 -187.22 251.47 -1.84c0,0 -86.28,-244.74 -82.61,-240.77zm225.79 88.43l-89.94 611.23 93.6 0 69.76 -611.23 -73.42 0zm152.37 0l-64.27 609.41 91.79 0 20.19 -611.25 -47.71 1.84zm146.83 0l-33.05 613.09 89.95 -1.86 0 -613.07c0,0 -56.8,0.01 -56.9,1.84zm139.51 0l56.89 0 33.05 611.23 -88.11 -1.82c0,0 -1.83,-605.74 -1.83,-609.41zm200.08 0l64.23 609.41 -91.79 0 -20.19 -611.25 47.75 1.84zm152.35 0l89.96 611.23 -93.62 0 -69.77 -611.23 73.43 0zm526.13 459.52l-78.78 67.53 76.27 -1.25 2.51 -66.28zm839.07 -549l-473.44 0 127.02 241.35 -228.64 2.11 0 241.34 -156.65 0 2.11 141.85 57.16 0 1.02 -83.57 -1.34 -0.75 256.61 1.12 1.1 -30.85 -33.04 0 -1.26 -115.52 367.76 -0.91 0 116.28 -35.01 0 0.34 29.74 211.51 1.26 4.59 1026.16c0,0 230.54,-529.88 127.3,-1080.39l-223.64 -168.58c0,0 4.54,-320.64 -3.5,-320.64zm86.97 -1.18l-1.67 271.96 122.51 97.41c0.37,0 -66.73,-270.86 -120.84,-369.37zm-1228.84 6.84l-140.71 59.64 89.3 636.35 264.34 -185.41 -148.7 -80.76 104.63 -187.22 -251.45 -1.84c0,0 86.27,-244.74 82.59,-240.76zm-2271.23 -351.84c0,0 434.43,-52 1098.29,-428.31 0,0 39.78,0 58.13,15.32l156 134.59 339.6 -348.77 327.36 357.96 186.61 -149.91c0,0 18.35,-12.23 48.94,0 0,0 713.59,397.71 1083,402.3 0,0 -305.93,-518.54 -1000.4,-751.06 0,0 -919.11,-370.8 -1827.72,280.83 -1.87,-1.27 -294.48,216.43 -461.24,471.15l-9.93 15.16 1.36 0.74z"/>
   <path class="fil1" d="M4945.76 12885.83l-2.76 324.9 -545.17 8.25c0,0 641.55,509.38 1211.49,611.26l27.54 -93.63c0,0 949.9,209.27 1723.62,-11.01l38.53 110.14c0,0 718.63,-184.46 1208.73,-619.51l-545.17 -2.76 -8.24 -316.62c0,0 -360.69,236.78 -580.97,286.34l-38.56 -85.36c0,0 -858.54,347.32 -1857.32,1.28l-47.19 106.16c0,0 -547.78,-261.41 -584.53,-319.44zm2549.17 393.27c-2.3,0 385.47,-151.43 479.53,-234.04l0 252.39 385.48 -2.29c0,0 -435.94,309.75 -894.84,440.54l-6.9 -22.93c0,0 146.87,-55.08 165.22,-71.14l-117.03 -328.12c0,0 -9.17,-34.41 -11.46,-34.41zm-1877.66 -84.9l-122.37 400.76c0,0 912.9,370.2 2003.24,1.24l15.14 -8.27 -123.91 -378.57c0,0 -979.74,318.3 -1750.68,-15.16l-16.37 -7.7c0,0 -3.92,7.17 -5.05,7.7zm-598.17 -146.21l3.93 251.68 -365.69 0c0,0 302.78,263.45 888.68,428.6l3.95 -19.65c0,0 -145.77,-55.59 -158.28,-68.09 0,0 125.86,-350.87 118.51,-363.73 0,0 -271.66,-100.96 -479.1,-227.61l-11.01 -8.26c0,0 -1.07,5.86 -0.99,7.06z"/>
  </g>
  <g id="_2176808637376">
   <g>
    <path class="fil1" d="M23393.92 8889.07c43.39,122 -456.32,595.92 -496.46,702.24 -66.78,43.89 -132.32,89.8 -154.71,175.57 72.87,20.71 148.69,9.34 196.07,87.77 -79.69,199.52 -186.12,254.41 -310.28,409.66 -189.59,88.17 -372.3,134.1 -517.12,273.07 3.46,22.75 32.32,21.95 41.38,39.02 220.64,-100.81 547.28,-140.61 713.65,29.25 -1.31,11.39 2.56,17.46 10.34,19.52 -157.3,115.01 -362,236.1 -568.42,273.09 -8.16,-96.32 157.73,-110.53 196.07,-195.06 4.77,-33.34 -30.6,-29.29 -41.37,-48.78 -106.42,41.04 -238.74,41.04 -320.58,136.56 15.06,139.37 41.36,273.08 72.37,399.88 -16.37,194.66 134.46,449.45 -124.09,546.17 -35.77,-7.3 -77.14,-10.56 -113.75,9.76 -110.36,-45.12 -216.36,-74.37 -341.35,-107.27 -34.46,-45.13 -81.85,-78.86 -124.1,-117.04 155.59,2.43 374.92,20.32 548.18,-19.52 119.35,-179.62 2.98,-420.59 -31.06,-633.95 -11.62,1.63 -18.09,-2.06 -20.24,-9.77 -290.9,-7.8 -637.59,277.73 -910.56,321.86 -92.21,127.19 -187.91,28.06 -320.64,19.48 -18.93,-40.2 -74.52,-46.31 -82.73,-97.5 90.94,-41.04 189.63,11.39 248.25,-68.27 344.75,-94.69 711.88,-339.35 1034.25,-409.64 27.14,-4.49 46.07,-66.23 20.65,-87.79 59.05,-154.01 296.48,-186.96 299.93,-360.86 -91.36,-59.77 -169.34,77.63 -247.79,58.49 -38.32,39.02 -113.33,42.67 -145.23,87.8 -175.82,7.73 -395.57,85.32 -568.84,-9.77 259.87,-95.88 490.87,-148.31 661.93,-282.85 183.58,-17.46 280.53,-139.37 455.05,-195.06 19.88,-8.11 56.47,-50.37 41.41,-58.51 279.81,-157.3 387.66,-625.54 579.15,-760.77 -0.83,-36.57 -11.19,-27.62 0,-58.52 -225.35,15.05 -330.94,195.08 -517.12,214.59 -37.49,29.66 -84.04,50.79 -134.45,68.26 -93.08,77.22 -93.51,201.58 -196.07,253.59 -6.48,78.84 11.2,84.53 41.37,136.54 -12.51,14.64 -30.17,24 -31.44,48.78 -57.78,-2.45 -82.32,1.21 -113.79,-9.76 -120.65,101.2 -236.14,257.25 -424.03,263.34 10.77,-109.71 321.47,-217.01 196.48,-331.61 -77.54,37.4 -102.56,124.36 -144.35,195.07 -232.7,-26.83 -160.7,212.12 -331.4,253.59 1.3,-17.5 -12.45,-20.71 -9.9,-39.02 -174.09,-106.07 -120.22,-318.19 -217.19,-497.42 12.08,-1.63 8.64,-17.87 9.95,-29.27 98.63,26.43 108.98,97.94 175.78,165.82 75.88,-9.75 95.23,107.28 186.17,39 -18.52,-217.01 -127.98,-365.75 -175.83,-546.18 -49.52,-53.64 -102.56,-104.85 -134.45,-175.55 9.05,-14.63 33.63,-14.23 51.72,-19.51 21.12,26.01 9.93,36.99 20.7,58.52 106.41,33.44 437.51,367.97 351.61,477.9 46.55,119.08 193.08,22.77 186.18,-58.52 -37.04,2.04 -30.6,-30.06 -20.66,-78.02 106.85,8.95 251.65,-4.07 299.93,-117.04 -114.65,-17.48 -288.74,-1.62 -403.38,68.29 -25.84,-8.15 -32.31,-34.16 -51.72,-48.78 36.66,-49.99 117.67,-16.66 155.17,-78.02 6.44,-85.75 -94.4,-16.67 -155.17,-58.52 -14.22,-28.04 28.45,-49.59 0,-58.52 2.16,-10.98 10.77,-5.3 10.36,0 125.4,5.68 312,-4.88 413.67,-97.55 115.52,-209.29 273.25,-372.65 331.41,-633.95 -26.29,-80.88 -102.14,-160.13 -62.5,-224.32 46.56,-20.75 123.7,85.33 196.54,78.02 163.32,130.45 119.34,297.46 -9.93,438.89 -140.05,36.56 -139.64,187.76 -238.33,253.59 -4.28,2.84 -14.22,-14.64 -20.24,-9.75 -41.36,31.7 -97.38,65.01 -103.85,126.79 127.13,36.57 252.11,7.32 351.64,48.78 177.55,-110.15 389.56,-118.69 527.89,-234.09 116.38,-0.41 221.96,23.97 309.87,87.78z"/>
    <path class="fil1" d="M22484.2 9259.68c89.22,14.65 159.45,35.78 217.19,107.29 -77.97,216.22 -262.44,331.63 -393.02,497.43 -32.72,-21.54 -72.8,23.17 -103.85,0 134.45,-210.09 196.05,-384.86 279.68,-604.72z"/>
    <path class="fil1" d="M20039.8 11164.36c-6.76,45.04 -59.77,19.14 -54.51,59.58 -165.79,-5.34 -449.59,175.1 -550.33,-34.03 -52.24,-37.95 -136.45,-136.13 -143.97,-212.7 -42.48,-31.19 -73.31,-73.04 -90.61,-127.64 -97.35,-114.84 -216.15,-210.21 -288.68,-348.82 6.39,-1.08 8.64,-6.37 7.51,-10.63 125.57,103.51 261.25,267.29 434.55,350.97 6.02,20.18 5.65,37.55 27.06,59.54 112.04,23.02 212.04,140.04 325.17,127.61 82.71,131.17 246.58,51.75 333.81,136.12z"/>
    <path class="fil1" d="M19363.16 9530.83c90.6,90.76 196.62,213.76 207.12,348.83 -128.19,130.12 -278.56,282.89 -478.15,365.84 -24.44,47.88 -74.41,31.92 -90.23,76.58 -72.55,8.17 -165.38,32.95 -144.33,102.08 -30.09,15.62 -55.64,16.31 -90.24,42.55 -35.69,167.7 -154.86,256.67 -198.47,416.89 -161.63,150.32 -313.13,357.34 -550.34,365.85 -1.12,-15.23 11.29,-18.06 9.04,-34.03 28.55,9.56 20.66,0.69 54.12,0 129.69,-127.98 290.58,-298.82 360.89,-510.49 60.87,-47.84 102.23,-113.41 108.25,-212.7 -45.11,-58.13 -90.21,19.87 -126.3,8.52 -19.18,7.09 -14.3,37.21 -27.08,51.05 -116.53,-21.63 -170.66,-102.81 -252.62,-119.11 -19.16,-12.78 6.77,-20.92 -9.01,-42.55 179.31,-44.32 360.13,-145.68 541.31,-246.73 80.45,-192.48 115.03,-339.6 180.45,-501.97 -27.83,-48.93 15.03,-125.49 36.09,-161.64 -18.04,-54.61 8.64,-115.59 36.08,-170.18 -9.03,-29.06 -19.55,-96.78 9.01,-93.58 17.68,-115.92 12.42,-188.6 63.15,-289.27 -25.92,-48.22 -5.26,-91.82 -45.11,-119.11 47.02,-38.3 118.42,18.43 162.4,0 77.83,71.25 128.55,135.78 126.31,238.22 -66.14,63.1 -57.89,140.03 -72.17,195.68 -2.27,9.94 -23.31,15.97 -27.06,25.53 -10.16,27.65 12.01,73.38 9,85.08 -9.76,41.13 -71.04,65.93 -36.08,110.6 -1.52,9.58 -9,4.62 -9,0 -38.73,94.65 -50.77,248.86 -117.31,365.84 -4.12,26.95 27.81,19.15 18.04,51.05 -18.4,8.15 -18.4,33.32 -45.09,34.03 13.16,30.14 36.84,50.7 63.52,68.07 124.82,-23.05 225.92,-107.41 324.41,-127.62 103.75,-85.43 -9.4,-218 9.4,-323.31z"/>
    <path class="fil1" d="M18074.34 10701.33c-2.63,-2.49 -4.89,-4.25 -7.51,-6.37 4.13,0 6.75,2.85 7.51,6.37z"/>
    <path class="fil1" d="M16930.81 11032.99c-2.26,102.1 12.78,191.42 -36.09,297.77 -41.34,90.43 -157.13,75.17 -243.6,85.09 -113.51,-94.99 -227.79,-146.75 -288.7,-280.76 122.18,96.07 357.88,157.77 424.03,8.52 49.83,-193.08 -73.63,-941.89 -45.1,-1199.66 -1.88,-63.07 9.4,-168.02 9.01,-246.71 -16.9,-23.4 -36.84,-44.67 -54.12,-68.07 -294.35,26.23 -566.13,252.4 -820.99,433.91 0.75,61.69 -67.29,105.27 -135.33,127.64 -42.11,92.5 86.08,150.66 162.38,85.05 86.84,-115.56 147.74,-296.72 333.83,-246.72 16.16,16.31 48.86,61.34 72.17,42.54 10.9,18.42 18.79,38.98 27.06,59.55 -89.83,99.25 -221.79,159.53 -270.65,297.79 25.56,62.38 92.09,32.62 126.3,85.06 -4.13,65.95 83.08,129.41 90.22,187.19 -30.46,4.6 -19.92,56.36 -27.06,68.06 -35.72,61.69 -91.73,85.44 -99.24,161.67 -2.63,28.36 19.15,61.66 18.04,93.57 -0.39,13.47 -18.43,29.08 -18.04,42.55 2.25,68.06 6.77,124.08 -45.12,195.67 -135.33,-41.47 -43.98,-201 -126.3,-263.73 -59.02,9.56 -94.73,41.13 -144.35,59.55 -43.97,-25.53 -85.71,-66.3 -90.23,-110.61 -11.26,-116.98 193.62,-196.39 153.37,-306.28 -17.29,-26.24 -44.72,-42.54 -63.14,-68.06 7.9,-41.13 -8.28,-60.27 -18.04,-85.09 -60.53,-8.14 -79.69,41.13 -135.34,34.02 -37.58,-4.6 -70.29,-53.86 -108.25,-59.54 -65.41,-9.59 -90.23,22.67 -144.36,85.07 -84.38,3.46 -205.26,199.04 -225.55,272.27 -37.59,139.31 64.67,335.01 -81.19,416.89 -1.49,-9.56 -9.02,-4.61 -9.02,0 -60.52,-52.49 -63.92,-108.47 -117.29,-161.64 10.34,-454.59 417.42,-676.77 622.51,-1012.47 69.7,-3.31 230.71,-162.55 198.49,-238.22 -75.57,-10.29 -135.34,49.98 -225.55,102.09 -187.58,108.85 -458.23,159.18 -613.49,-59.56 20.68,-4.6 -10.91,-13.1 9.02,-25.51 219.2,45.78 820.21,-262.94 956.31,-425.4 -18.78,-30.85 25.95,-27.3 -9.02,-51.05 39.85,-32.63 51.14,-101.04 54.15,-144.64 49.23,-162.36 86.45,-350.24 207.48,-501.97 56.02,-1.43 68.05,37.92 126.32,34.02 30.06,74.8 -48.87,183.28 0,255.26 -15.03,71.94 -48.13,172.27 18.04,187.16 66.91,14.89 100.74,-80.82 189.46,-76.56 36.47,-61.7 -31.95,-89.69 0,-153.15 54.5,50.33 112.39,51.41 162.4,110.61 -11.27,32.97 0,55.65 -27.06,85.07 -14.3,2.47 -15.42,-8.15 -27.07,-8.5 -71.43,108.11 -189.46,172.63 -270.67,272.25 -153.35,10.64 -189.46,160.23 -297.72,187.18 -0.75,28.36 -14.66,46.79 0,76.56 62.78,-0.34 115.78,-16.31 153.38,-59.55 14.67,-2.49 15.78,8.16 27.07,8.5 124.8,-88.62 252.99,-124.07 378.9,-204.18 38.35,10.63 114.28,-9.57 126.32,-51.05 173.29,-25.87 238.33,238.94 144.35,382.86 14.29,182.21 -130.14,1054.31 27.07,1267.69z"/>
    <path class="fil1" d="M14079.15 9163.52c-158.93,166.37 -285.32,741.72 -234.57,961.39 -12.02,8.51 -17.66,22.69 -27.06,34.05 19.62,216.36 -40.23,1021.76 63.14,1174.1 0.76,77.28 -7.5,203.12 -144.34,212.71 -175.55,-190.03 -396.22,-288.24 -559.36,-493.46 68.81,27.27 -39.09,-35.84 9.02,-34.07 41.74,102.47 191.72,102.82 261.63,178.67 88.73,-5.3 88.73,24.13 171.42,17.03 17.68,-39.36 13.54,-124.08 -9.02,-153.15 67.92,-544.01 -2.66,-1076.97 90.23,-1625.03 3.76,-19.85 14.27,-99.61 9.02,-119.11 -34.57,-135.76 -334.99,147.9 -378.92,204.19 -79.69,36.15 -164.28,19.14 -225.55,76.58 -46.98,-19.14 -83.45,-4.26 -99.25,-59.56 62.42,-4.61 125.56,-52.47 162.4,-85.08 127.83,-112.72 252.61,-191.42 378.92,-289.26 42.94,-33.06 203.16,-134.42 198.49,-195.69 64.28,-20.93 114.28,-51.75 198.48,-17.01 39.9,94.9 117.95,74.18 135.32,212.7z"/>
    <path class="fil1" d="M13420.57 9920.73c58.63,165.54 -21.43,290.67 -108.27,450.93 1.12,21.25 16.9,26.2 0,42.55 49.24,56.7 156.75,148.86 63.14,229.69 -65.02,-29.42 -109.77,-48.91 -162.38,-102.09 -70.3,-146.06 -6.78,-323.66 54.13,-442.41 6.38,-173.35 -128.2,-337.85 -270.67,-425.41 6.02,-8.51 21.06,-8.86 18.04,-25.52 172.56,2.83 334.58,135.77 406.01,272.26z"/>
    <path class="fil1" d="M13167.94 9954.75c26.69,32.61 -12.02,58.86 -27.06,102.1 -37.22,110.59 -40.23,257.37 -54.13,374.35 -9.78,85.44 -9.4,165.9 -18.04,246.73 -15.04,147.49 -9.4,286.1 18.04,425.41 -79.69,203.14 6,457.66 -153.38,578.55 -3,95.34 -100.35,154.92 -180.44,204.18 -116.91,-6.75 -97.35,-77.99 -126.3,-161.64 -23.68,-68.78 -87.21,-130.47 -180.44,-153.15 66.55,-118.05 358.99,177.59 324.78,-102.1 42.86,-92.53 69.19,-283.94 72.19,-391.36 30.82,6.37 15.04,-31.19 36.09,-34.03 -6.39,-183.27 35.7,-407.33 63.14,-578.55 -3.01,-11.36 -15.78,-13.48 -18.04,-25.52 -52.62,4.25 -76.69,35.44 -108.26,59.54 -44.36,214.84 -168.04,349.21 -225.54,510.5 -109.77,25.16 -149.62,-31.19 -216.53,-76.58 46.61,-58.12 44.74,-137.2 72.17,-212.7 15.04,-41.12 84.2,-144.64 99.24,-195.71 11.65,-37.56 5.65,-131.51 27.06,-136.12 -123.67,-71.59 -233.81,229.39 -261.63,365.86 -17.67,8.51 -31.57,21.25 -45.11,34.03 1.89,32.96 0.38,62.73 -9.02,85.09 -15.78,7.8 -44.72,2.8 -54.12,17 -44.73,-26.93 -57.89,-39.36 -108.28,-51.03 -62.02,-90.42 -4.88,-198.19 0,-289.27 51.51,-8.86 46.99,35.44 90.23,34.02 96.61,-49.3 186.07,-192.85 279.68,-280.75 106.39,-99.29 153.37,-125.5 252.6,-8.52 1.89,40.75 -31.2,109.19 18.05,144.64 173.3,-131.87 214.64,-280.07 279.67,-493.48 61.29,-10.27 104.51,-4.61 153.38,8.51z"/>
    <path class="fil1" d="M13176.97 9146.5c-1.89,48.92 -14.67,92.52 -0.01,136.13 -122.91,215.88 -418.77,268.34 -577.39,450.91 -166.16,86.86 -259.39,242.84 -396.96,357.34 -93.22,-2.13 -209.77,11.69 -279.68,51.04 13.06,98.66 16.61,286.35 -63.16,357.34 -26.32,274.39 -79.31,473.97 -198.49,663.62 0.06,172.41 -134.27,283.02 -153.36,450.95 -5.65,50.33 31.19,115.56 -36.08,144.64 -102.25,-43.62 -198.49,-104.93 -225.55,-195.7 37.21,-90.05 3.75,-244.59 18.04,-399.89 17.58,-183.48 23.04,-688.25 108.26,-791.22 -2.26,-59.21 -11.65,-60.27 0,-110.61 56.01,75.5 84.19,156.68 90.21,246.73 83.83,86.85 27.84,219.8 126.31,272.24 86.09,-91.8 133.46,-220.14 162.4,-365.81 77.25,-185.71 -31.83,-301.37 9.02,-416.91 16.94,-98.77 261.1,-221.73 342.83,-323.31 94.73,-46.09 189.08,-86.15 252.62,-178.67 2.63,-237.86 92.09,-337.48 81.19,-561.52 51.87,-129.75 122.17,-220.85 162.4,-348.84 45.85,-5.32 66.54,4.61 90.21,-8.5 114.66,74.79 81.19,291.04 216.53,306.28 -12.42,42.54 43.6,87.91 99.23,93.59 37.21,75.51 127.06,101.38 171.43,170.17zm-270.66 -59.56c-52.63,-55.65 -4.52,-154.21 -81.19,-187.18 -45.5,43.25 -84.58,260.55 -9.03,272.25 50,7.81 60.9,-51.75 90.22,-85.07z"/>
    <path class="fil1" d="M12825.12 8899.75c76.67,32.97 28.56,131.54 81.19,187.19 -29.32,33.32 -40.22,92.88 -90.22,85.07 -75.55,-11.7 -36.47,-229 9.03,-272.26z"/>
    <path class="fil1" d="M11959.02 8857.22c-60.15,29.06 -41.35,175.12 -108.28,170.16 -19.92,105.63 -94.35,160.23 -144.34,238.23 -65.04,-21.63 3.77,-83.66 18.04,-127.62 -14.67,-108.12 32.71,-208.45 36.09,-272.27 12.41,-211.28 -134.19,-309.48 -144.35,-510.48 12.41,-19.85 32.32,-31.89 54.13,-42.52 78.2,179.72 241.34,312.29 288.71,544.5z"/>
   </g>
   <path class="fil2" d="M11677.06 13080.14l0 40.71 334.4 0 0 -40.71 -16.36 0c-57.06,2.61 -84.21,-23.14 -81.42,-77.6l0 -415.82c-2.79,-51.68 22.96,-76.21 77.42,-73.43l20.36 0 0 -40.88 -334.4 0 0 40.88 8.18 0c59.85,-2.78 88.38,23.14 85.6,77.43l0 163.2 -346.58 0 0 -167.2c-2.79,-51.68 24.53,-76.21 81.6,-73.43l16.35 0 0 -40.88 -334.4 0 0 40.88 16.18 0c51.68,0 77.6,24.36 77.6,73.43l0 415.82c0,51.67 -25.92,77.6 -77.6,77.6l-16.18 0 0 40.71 334.4 0 0 -40.71 -16.35 0c-54.46,0 -81.6,-25.93 -81.6,-77.6l0 -187.56 346.58 0 0 183.56c0,54.28 -25.75,81.6 -77.43,81.6l-16.35 0zm954.2 -566.85l16.36 0c59.67,-2.78 88.21,32.54 85.6,105.96l0 252.8c-2.79,125.1 -70.64,188.95 -203.91,191.73 -122.31,-2.78 -184.95,-59.85 -187.56,-171.37l0 -309.87c0,-46.11 24.36,-69.25 73.42,-69.25l16.18 0 0 -40.88 -326.22 0 0 40.88 20.53 0c51.68,-2.78 76.03,20.36 73.42,69.25l0 309.87c2.61,155.02 104.57,233.83 305.7,236.62 193.12,-2.79 290.9,-92.39 293.68,-269.16l0 -260.98c-2.78,-59.85 28.54,-88.38 93.78,-85.6l8.18 0 0 -40.88 -269.16 0 0 40.88zm517.86 89.61l497.42 517.95 57.07 0 0 -554.66c-2.61,-37.93 25.92,-55.68 85.77,-52.9l12.18 0 0 -40.88 -269.15 0 0 40.88 12.17 0c43.5,0 70.82,5.4 81.6,16.36 10.96,10.79 16.36,35.32 16.36,73.25l0 314.04 -428.18 -444.53 -212.09 0 0 40.88c32.71,0 59.85,6.79 81.6,20.36l0 481.24c2.61,43.5 -23.14,65.25 -77.42,65.25l-8.18 0 0 40.71 252.8 0 0 -40.71c-73.42,5.39 -107.35,-23.14 -101.95,-85.78l0 -391.46zm1202.83 277.33l49.07 122.31c13.57,24.53 16.18,43.5 8.17,57.07 -8.17,13.74 -27.31,20.53 -57.24,20.53l-36.53 0 0 40.71 338.4 0 0 -40.71c-48.89,0 -84.39,-31.32 -106.13,-93.78l-207.92 -530.13 -154.84 0 12.18 28.53 -179.38 497.42c-21.75,68.03 -55.85,100.57 -101.96,97.96l-16.35 0 0 40.71 277.33 0 0 -40.71 -12.35 0c-46.11,0 -74.64,-5.57 -85.6,-16.36 -10.79,-8.17 -9.57,-28.53 4.17,-61.24l40.71 -122.31 228.27 0zm-20.35 -57.07l-187.56 0 89.78 -244.62 97.78 244.62zm575.09 -220.26l497.42 517.95 57.07 0 0 -554.66c-2.61,-37.93 25.92,-55.68 85.77,-52.9l12.18 0 0 -40.88 -269.15 0 0 40.88 12.17 0c43.5,0 70.82,5.4 81.6,16.36 10.96,10.79 16.36,35.32 16.36,73.25l0 314.04 -428.18 -444.53 -212.09 0 0 40.88c32.71,0 59.85,6.79 81.6,20.36l0 481.24c2.61,43.5 -23.14,65.25 -77.42,65.25l-8.18 0 0 40.71 252.8 0 0 -40.71c-73.42,5.39 -107.35,-23.14 -101.95,-85.78l0 -391.46zm1549.51 -89.61l16.36 0c59.67,-2.78 88.21,32.54 85.6,105.96l0 252.8c-2.79,125.1 -70.64,188.95 -203.91,191.73 -122.31,-2.78 -184.95,-59.85 -187.56,-171.37l0 -309.87c0,-46.11 24.36,-69.25 73.42,-69.25l16.18 0 0 -40.88 -326.22 0 0 40.88 20.53 0c51.68,-2.78 76.03,20.36 73.42,69.25l0 309.87c2.61,155.02 104.57,233.83 305.7,236.62 193.12,-2.79 290.9,-92.39 293.68,-269.16l0 -260.98c-2.78,-59.85 28.54,-88.38 93.78,-85.6l8.18 0 0 -40.88 -269.16 0 0 40.88zm517.86 89.61l497.42 517.95 57.07 0 0 -554.66c-2.61,-37.93 25.92,-55.68 85.77,-52.9l12.18 0 0 -40.88 -269.15 0 0 40.88 12.17 0c43.5,0 70.82,5.4 81.6,16.36 10.96,10.79 16.36,35.32 16.36,73.25l0 314.04 -428.18 -444.53 -212.09 0 0 40.88c32.71,0 59.85,6.79 81.6,20.36l0 481.24c2.61,43.5 -23.14,65.25 -77.42,65.25l-8.18 0 0 40.71 252.8 0 0 -40.71c-73.42,5.39 -107.35,-23.14 -101.95,-85.78l0 -391.46zm766.65 -89.61l12.18 0c54.28,-2.78 80.21,23.14 77.42,77.43l0 416c2.79,48.89 -23.14,73.42 -77.42,73.42l-12.18 0 0 40.71 330.23 0 0 -40.71 -16.36 0c-57.07,2.61 -84.21,-23.14 -81.42,-77.6l0 -411.82c0,-51.68 27.14,-77.43 81.42,-77.43l16.36 0 0 -40.88 -330.23 0 0 40.88zm791.01 615.74l65.25 0 216.26 -505.6c29.75,-78.99 70.64,-115.53 122.31,-110.14l4.01 0 0 -40.88 -264.98 0 0 40.88 24.35 0c57.07,2.61 78.82,21.75 65.25,57.07l-159.02 383.29 -163.03 -350.75c-16.35,-32.54 -19.14,-55.68 -8.18,-69.25 10.79,-13.57 38.11,-20.36 81.6,-20.36l16.18 0 0 -40.88 -362.93 0 0 40.88 8.18 0c29.92,0 51.67,5.4 65.24,16.36 10.96,8 25.93,31.14 44.89,69.24l244.62 530.14zm978.74 -599.38c40.71,-5.57 65.25,25.75 73.42,93.78l40.72 0 -12.18 -151.02 -575.02 0 0 40.88 12.35 0c62.46,-2.78 92.39,21.75 89.6,73.43l0 420c2.79,51.67 -24.36,76.03 -81.6,73.42l-40.71 0 0 40.71 627.91 0 12.35 -163.2 -40.88 0c-13.57,76.21 -52.89,111.53 -118.14,106.13l-175.37 0c-29.93,5.4 -43.5,-12.18 -40.89,-53.06l0 -187.56 155.02 0c70.64,-5.39 101.96,18.97 93.78,73.42l40.88 0 0 -207.91 -40.88 0c2.78,51.5 -23.14,76.03 -77.43,73.25l-171.37 0 0 -232.27 228.44 0zm509.68 313.87l81.6 0c27.14,21.75 65.24,65.24 114.13,130.49 32.71,46.28 55.68,76.2 69.25,89.77 24.53,24.36 53.06,42.11 85.77,53.07 32.54,5.39 80.21,8 142.67,8 27.14,0 48.89,0 65.24,0l0 -32.53c-57.06,-2.79 -103.34,-24.54 -138.66,-65.25 -21.75,-21.75 -50.28,-55.67 -85.6,-101.95 -38.11,-51.68 -69.42,-88.39 -93.78,-110.14 100.56,-27.14 152.24,-82.81 154.85,-167.2 0,-46.1 -16.19,-85.6 -48.89,-118.13 -46.11,-51.67 -142.67,-76.21 -289.52,-73.42 -38.1,0 -95.17,2.61 -171.2,8.17 -21.74,0 -57.06,1.22 -106.13,4.01 -10.78,2.78 -20.35,4 -28.53,4l0 40.88 20.53 0c62.46,-2.78 90.99,23.14 85.6,77.43l0 411.82c2.61,54.46 -27.32,80.21 -89.78,77.6l-16.35 0 0 40.71 362.93 0 0 -40.71 -32.53 0c-54.46,0 -81.6,-25.93 -81.6,-77.6l0 -159.02zm0 -342.58l57.06 0c119.71,2.79 180.77,53.07 183.56,151.02 2.61,100.56 -63.85,150.85 -199.91,150.85l-40.71 0 0 -301.87zm697.23 615.91l28.53 0c5.57,-10.96 12.36,-16.36 20.36,-16.36 5.57,0 17.75,2.61 36.71,8.18 59.85,13.57 107.52,20.36 142.84,20.36 138.67,-5.4 213.31,-68.03 224.27,-187.56 0,-49.06 -20.36,-95.17 -61.24,-138.66 -32.54,-32.71 -87,-68.03 -163.03,-106.14 -84.38,-46.1 -126.48,-86.99 -126.48,-122.31 5.39,-46.1 39.49,-70.63 101.95,-73.42 84.21,2.79 141.45,49.07 171.2,138.67l40.89 0 -20.36 -167.2 -20.53 0c-5.39,2.78 -6.78,4.17 -4,4.17 -8.18,5.4 -14.96,8.18 -20.36,8.18 -2.78,0 -12.17,-2.78 -28.53,-8.18 -48.89,-13.57 -92.39,-20.35 -130.49,-20.35 -133.27,8.17 -203.91,65.24 -212.09,171.2 16.36,100.56 77.43,168.59 183.56,203.91 89.6,35.32 139.88,85.6 150.84,150.84 -5.39,65.25 -44.88,99.18 -118.31,101.96 -86.99,0 -146.84,-51.67 -179.37,-155.02l-40.72 0 24.36 187.73zm595.45 -603.56l12.18 0c54.28,-2.78 80.21,23.14 77.42,77.43l0 416c2.79,48.89 -23.14,73.42 -77.42,73.42l-12.18 0 0 40.71 330.23 0 0 -40.71 -16.36 0c-57.07,2.61 -84.21,-23.14 -81.42,-77.6l0 -411.82c0,-51.68 27.14,-77.43 81.42,-77.43l16.36 0 0 -40.88 -330.23 0 0 40.88zm876.79 12.18l122.31 0c43.5,0 70.64,6.79 81.43,20.36 10.96,10.96 21.74,44.89 32.7,101.95l40.72 0 -16.18 -195.73 -36.71 0c-10.97,16.36 -27.32,23.14 -49.07,20.36l-497.42 0c-10.79,0 -20.36,-1.22 -28.53,-4 -5.4,-2.79 -12.18,-8.18 -20.36,-16.36l-32.71 0 -20.36 195.73 44.89 0c10.79,-57.06 21.75,-90.99 32.54,-101.95 10.96,-13.57 36.71,-20.36 77.59,-20.36l126.32 0 0 477.07c2.78,51.67 -24.36,77.6 -81.43,77.6l-36.71 0 0 40.71 375.11 0 0 -40.71 -24.53 0c-65.24,2.61 -95.17,-23.14 -89.6,-77.6l0 -477.07zm856.25 334.4l175.21 -273.15c19.13,-29.93 35.49,-49.07 49.06,-57.07 16.18,-8.18 39.32,-13.75 69.25,-16.36l0 -40.88 -248.8 0 0 40.88 12.35 0c29.93,0 48.89,6.79 57.07,20.36 5.39,13.57 0,33.93 -16.36,61.24l-122.31 191.56 -167.2 -220.26c-10.79,-16.18 -12.18,-29.76 -4,-40.72 8.18,-8.17 24.36,-12.18 48.89,-12.18l16.35 0 0 -40.88 -342.57 0 0 40.88 8.17 0c27.15,0 46.11,2.61 57.07,8.18 10.79,5.4 23.14,18.97 36.71,40.71l224.27 297.69 0 146.85c2.78,48.89 -23.14,73.42 -77.42,73.42l-28.54 0 0 40.71 358.76 0 0 -40.71 -16.36 0c-65.24,2.61 -95.17,-23.14 -89.6,-77.6l0 -142.67z"/>
  </g>
 </g>
</svg>
